<svg width="14" height="14" viewBox="0 0 14 14" fill="none" xmlns="http://www.w3.org/2000/svg">
<path fill-rule="evenodd" clip-rule="evenodd" d="M3.79974 0.0666504C4.09429 0.0666504 4.33307 0.305434 4.33307 0.599984V1.13332H9.66641V0.599984C9.66641 0.305434 9.90523 0.0666504 10.1997 0.0666504C10.4942 0.0666504 10.7331 0.305434 10.7331 0.599984V1.13332H12.3331C13.2167 1.13332 13.9331 1.84966 13.9331 2.73332V12.3333C13.9331 13.2169 13.2167 13.9333 12.3331 13.9333H1.66641C0.782748 13.9333 0.0664062 13.2169 0.0664062 12.3333V2.73332C0.0664062 1.84966 0.782748 1.13332 1.66641 1.13332H3.26641V0.599984C3.26641 0.305434 3.50519 0.0666504 3.79974 0.0666504ZM9.66641 2.19998V2.73332C9.66641 3.02787 9.90523 3.26665 10.1997 3.26665C10.4942 3.26665 10.7331 3.02787 10.7331 2.73332V2.19998H12.3331C12.6276 2.19998 12.8664 2.43877 12.8664 2.73332V4.33332H1.13307V2.73332C1.13307 2.43877 1.37186 2.19998 1.66641 2.19998H3.26641V2.73332C3.26641 3.02787 3.50519 3.26665 3.79974 3.26665C4.09429 3.26665 4.33307 3.02787 4.33307 2.73332V2.19998H9.66641ZM1.13307 5.39998V12.3333C1.13307 12.6278 1.37186 12.8667 1.66641 12.8667H12.3331C12.6276 12.8667 12.8664 12.6278 12.8664 12.3333V5.39998H1.13307ZM6.46641 6.99998C6.46641 6.70543 6.70519 6.46665 6.99974 6.46665C7.29429 6.46665 7.53307 6.70543 7.53307 6.99998C7.53307 7.29453 7.29429 7.53332 6.99974 7.53332C6.70519 7.53332 6.46641 7.29453 6.46641 6.99998ZM9.13307 6.46665C8.83852 6.46665 8.59974 6.70543 8.59974 6.99998C8.59974 7.29453 8.83852 7.53332 9.13307 7.53332C9.42762 7.53332 9.66641 7.29453 9.66641 6.99998C9.66641 6.70543 9.42762 6.46665 9.13307 6.46665ZM10.7331 6.99998C10.7331 6.70543 10.9719 6.46665 11.2664 6.46665C11.5609 6.46665 11.7997 6.70543 11.7997 6.99998C11.7997 7.29453 11.5609 7.53332 11.2664 7.53332C10.9719 7.53332 10.7331 7.29453 10.7331 6.99998ZM11.2664 8.59998C10.9719 8.59998 10.7331 8.83877 10.7331 9.13332C10.7331 9.42787 10.9719 9.66665 11.2664 9.66665C11.5609 9.66665 11.7997 9.42787 11.7997 9.13332C11.7997 8.83877 11.5609 8.59998 11.2664 8.59998ZM8.59974 9.13332C8.59974 8.83877 8.83852 8.59998 9.13307 8.59998C9.42762 8.59998 9.66641 8.83877 9.66641 9.13332C9.66641 9.42787 9.42762 9.66665 9.13307 9.66665C8.83852 9.66665 8.59974 9.42787 8.59974 9.13332ZM6.99974 8.59998C6.70519 8.59998 6.46641 8.83877 6.46641 9.13332C6.46641 9.42787 6.70519 9.66665 6.99974 9.66665C7.29429 9.66665 7.53307 9.42787 7.53307 9.13332C7.53307 8.83877 7.29429 8.59998 6.99974 8.59998ZM4.33307 9.13332C4.33307 8.83877 4.57186 8.59998 4.86641 8.59998C5.16096 8.59998 5.39974 8.83877 5.39974 9.13332C5.39974 9.42787 5.16096 9.66665 4.86641 9.66665C4.57186 9.66665 4.33307 9.42787 4.33307 9.13332ZM2.73307 8.59998C2.43852 8.59998 2.19974 8.83877 2.19974 9.13332C2.19974 9.42787 2.43852 9.66665 2.73307 9.66665C3.02762 9.66665 3.26641 9.42787 3.26641 9.13332C3.26641 8.83877 3.02762 8.59998 2.73307 8.59998ZM2.19974 11.2667C2.19974 10.9721 2.43852 10.7333 2.73307 10.7333C3.02762 10.7333 3.26641 10.9721 3.26641 11.2667C3.26641 11.5612 3.02762 11.8 2.73307 11.8C2.43852 11.8 2.19974 11.5612 2.19974 11.2667ZM4.86641 10.7333C4.57186 10.7333 4.33307 10.9721 4.33307 11.2667C4.33307 11.5612 4.57186 11.8 4.86641 11.8C5.16096 11.8 5.39974 11.5612 5.39974 11.2667C5.39974 10.9721 5.16096 10.7333 4.86641 10.7333ZM6.46641 11.2667C6.46641 10.9721 6.70519 10.7333 6.99974 10.7333C7.29429 10.7333 7.53307 10.9721 7.53307 11.2667C7.53307 11.5612 7.29429 11.8 6.99974 11.8C6.70519 11.8 6.46641 11.5612 6.46641 11.2667ZM9.13307 10.7333C8.83852 10.7333 8.59974 10.9721 8.59974 11.2667C8.59974 11.5612 8.83852 11.8 9.13307 11.8C9.42762 11.8 9.66641 11.5612 9.66641 11.2667C9.66641 10.9721 9.42762 10.7333 9.13307 10.7333Z" fill="#F0FDEC" fill-opacity="0.454902"/>
</svg>
