<svg width="32" height="32" viewBox="0 0 32 32" fill="none" xmlns="http://www.w3.org/2000/svg">
<rect width="32" height="32" fill="white" fill-opacity="0.01"/>
<rect width="16" height="16" transform="translate(8 8)" fill="white" fill-opacity="0.01"/>
<path fill-rule="evenodd" clip-rule="evenodd" d="M20.5671 12.3003C20.8066 12.0608 20.8066 11.6725 20.5671 11.4329C20.3276 11.1934 19.9392 11.1934 19.6998 11.4329L16.0001 15.1326L12.3004 11.4329C12.0609 11.1934 11.6726 11.1934 11.4331 11.4329C11.1935 11.6725 11.1935 12.0608 11.4331 12.3003L15.1327 16L11.4331 19.6996C11.1935 19.9392 11.1935 20.3274 11.4331 20.567C11.6726 20.8065 12.0609 20.8065 12.3004 20.567L16.0001 16.8673L19.6998 20.567C19.9392 20.8065 20.3276 20.8065 20.5671 20.567C20.8066 20.3274 20.8066 19.9392 20.5671 19.6996L16.8675 16L20.5671 12.3003Z" fill="#AFB5AD"/>
</svg>
