    <svg width="14" height="14" viewBox="0 0 14 14" fill="none" xmlns="http://www.w3.org/2000/svg">
<path fill-rule="evenodd" clip-rule="evenodd" d="M1.98647 0.0666543L1.93279 0.0666224C1.68911 0.0663898 1.47905 0.0661893 1.29296 0.110868C0.707922 0.251316 0.251133 0.708105 0.110685 1.29314C0.0660062 1.47923 0.0662067 1.68929 0.0664392 1.93297L0.0664712 1.98665V4.54665L0.0664392 4.60034C0.0662067 4.84402 0.0660062 5.05409 0.110685 5.24017C0.251133 5.8252 0.707922 6.28199 1.29296 6.42245C1.47905 6.46712 1.68911 6.46692 1.93279 6.46669L1.98647 6.46665H4.54647L4.60016 6.46669C4.84384 6.46692 5.05391 6.46712 5.23999 6.42245C5.82502 6.28199 6.28181 5.8252 6.42227 5.24017C6.46694 5.05409 6.46674 4.84402 6.4665 4.60034L6.46647 4.54665V1.98665L6.4665 1.93297C6.46674 1.68929 6.46694 1.47923 6.42227 1.29314C6.28181 0.708105 5.82502 0.251316 5.23999 0.110868C5.05391 0.0661893 4.84384 0.0663898 4.60016 0.0666224L4.54647 0.0666543H1.98647ZM1.54197 1.14806C1.58788 1.13703 1.65817 1.13332 1.98647 1.13332H4.54647C4.87478 1.13332 4.94507 1.13703 4.99097 1.14806C5.18599 1.19488 5.33825 1.34713 5.38507 1.54215C5.39609 1.58806 5.3998 1.65836 5.3998 1.98665V4.54665C5.3998 4.87496 5.39609 4.94526 5.38507 4.99116C5.33825 5.18617 5.18599 5.33843 4.99097 5.38526C4.94507 5.39628 4.87478 5.39999 4.54647 5.39999H1.98647C1.65817 5.39999 1.58788 5.39628 1.54197 5.38526C1.34695 5.33843 1.1947 5.18617 1.14788 4.99116C1.13685 4.94526 1.13314 4.87496 1.13314 4.54665V1.98665C1.13314 1.65836 1.13685 1.58806 1.14788 1.54215C1.1947 1.34713 1.34695 1.19488 1.54197 1.14806ZM9.45314 0.0666543L9.39945 0.0666224C9.15577 0.0663898 8.94571 0.0661893 8.75962 0.110868C8.17459 0.251316 7.7178 0.708105 7.57735 1.29314C7.53267 1.47923 7.53287 1.68929 7.53311 1.93297L7.53314 1.98665V4.54665L7.53311 4.60034C7.53287 4.84402 7.53267 5.05409 7.57735 5.24017C7.7178 5.8252 8.17459 6.28199 8.75962 6.42245C8.94571 6.46712 9.15577 6.46692 9.39945 6.46669L9.45314 6.46665H12.0131L12.0668 6.46669C12.3105 6.46692 12.5206 6.46712 12.7067 6.42245C13.2916 6.28199 13.7485 5.8252 13.889 5.24017C13.9336 5.05409 13.9335 4.84402 13.9331 4.60034V4.54665V1.98665V1.93297C13.9335 1.68929 13.9336 1.47923 13.889 1.29314C13.7485 0.708105 13.2916 0.251316 12.7067 0.110868C12.5206 0.0661893 12.3105 0.0663898 12.0668 0.0666224L12.0131 0.0666543H9.45314ZM9.00864 1.14806C9.05455 1.13703 9.12484 1.13332 9.45314 1.13332H12.0131C12.3415 1.13332 12.4118 1.13703 12.4576 1.14806C12.6526 1.19488 12.8049 1.34713 12.8518 1.54215C12.8627 1.58806 12.8665 1.65836 12.8665 1.98665V4.54665C12.8665 4.87496 12.8627 4.94526 12.8518 4.99116C12.8049 5.18617 12.6526 5.33843 12.4576 5.38526C12.4118 5.39628 12.3415 5.39999 12.0131 5.39999H9.45314C9.12484 5.39999 9.05455 5.39628 9.00864 5.38526C8.81362 5.33843 8.66136 5.18617 8.61454 4.99116C8.60352 4.94526 8.5998 4.87496 8.5998 4.54665V1.98665C8.5998 1.65836 8.60352 1.58806 8.61454 1.54215C8.66136 1.34713 8.81362 1.19488 9.00864 1.14806ZM1.93279 7.53329L1.98647 7.53332H4.54647L4.60016 7.53329C4.84384 7.53305 5.05391 7.53285 5.23999 7.57753C5.82502 7.71798 6.28181 8.17477 6.42227 8.75981C6.46694 8.9459 6.46674 9.15596 6.4665 9.39964L6.46647 9.45332V12.0133L6.4665 12.067C6.46674 12.3107 6.46694 12.5207 6.42227 12.7069C6.28181 13.2918 5.82502 13.7487 5.23999 13.8892C5.05391 13.9337 4.84384 13.9336 4.60016 13.9333H4.54647H1.98647H1.93279C1.68911 13.9336 1.47905 13.9337 1.29296 13.8892C0.707922 13.7487 0.251133 13.2918 0.110685 12.7069C0.0660062 12.5207 0.0662067 12.3107 0.0664392 12.067L0.0664712 12.0133V9.45332L0.0664392 9.39964C0.0662067 9.15596 0.0660062 8.9459 0.110685 8.75981C0.251133 8.17477 0.707922 7.71798 1.29296 7.57753C1.47905 7.53285 1.68911 7.53305 1.93279 7.53329ZM1.98647 8.59999C1.65817 8.59999 1.58788 8.6037 1.54197 8.61473C1.34695 8.66154 1.1947 8.8138 1.14788 9.00882C1.13685 9.05473 1.13314 9.12502 1.13314 9.45332V12.0133C1.13314 12.3416 1.13685 12.4119 1.14788 12.4578C1.1947 12.6528 1.34695 12.8051 1.54197 12.8519C1.58788 12.8629 1.65817 12.8667 1.98647 12.8667H4.54647C4.87478 12.8667 4.94507 12.8629 4.99097 12.8519C5.18599 12.8051 5.33825 12.6528 5.38507 12.4578C5.39609 12.4119 5.3998 12.3416 5.3998 12.0133V9.45332C5.3998 9.12502 5.39609 9.05473 5.38507 9.00882C5.33825 8.8138 5.18599 8.66154 4.99097 8.61473C4.94507 8.6037 4.87478 8.59999 4.54647 8.59999H1.98647ZM9.45314 7.53332L9.39945 7.53329C9.15577 7.53305 8.94571 7.53285 8.75962 7.57753C8.17459 7.71798 7.7178 8.17477 7.57735 8.75981C7.53267 8.9459 7.53287 9.15596 7.53311 9.39964L7.53314 9.45332V12.0133L7.53311 12.067C7.53287 12.3107 7.53267 12.5207 7.57735 12.7069C7.7178 13.2918 8.17459 13.7487 8.75962 13.8892C8.94571 13.9337 9.15577 13.9336 9.39945 13.9333H9.45314H12.0131H12.0668C12.3105 13.9336 12.5206 13.9337 12.7067 13.8892C13.2916 13.7487 13.7485 13.2918 13.889 12.7069C13.9336 12.5207 13.9335 12.3107 13.9331 12.067V12.0133V9.45332V9.39964C13.9335 9.15596 13.9336 8.9459 13.889 8.75981C13.7485 8.17477 13.2916 7.71798 12.7067 7.57753C12.5206 7.53285 12.3105 7.53305 12.0668 7.53329L12.0131 7.53332H9.45314ZM9.00864 8.61473C9.05455 8.6037 9.12484 8.59999 9.45314 8.59999H12.0131C12.3415 8.59999 12.4118 8.6037 12.4576 8.61473C12.6526 8.66154 12.8049 8.8138 12.8518 9.00882C12.8627 9.05473 12.8665 9.12502 12.8665 9.45332V12.0133C12.8665 12.3416 12.8627 12.4119 12.8518 12.4578C12.8049 12.6528 12.6526 12.8051 12.4576 12.8519C12.4118 12.8629 12.3415 12.8667 12.0131 12.8667H9.45314C9.12484 12.8667 9.05455 12.8629 9.00864 12.8519C8.81362 12.8051 8.66136 12.6528 8.61454 12.4578C8.60352 12.4119 8.5998 12.3416 8.5998 12.0133V9.45332C8.5998 9.12502 8.60352 9.05473 8.61454 9.00882C8.66136 8.8138 8.81362 8.66154 9.00864 8.61473Z" fill="white"/>
</svg>
