<svg width="10" height="13" viewBox="0 0 10 13" fill="none" xmlns="http://www.w3.org/2000/svg">
<path fill-rule="evenodd" clip-rule="evenodd" d="M2.86686 0.0666504C2.57231 0.0666504 2.33353 0.305434 2.33353 0.599984C2.33353 0.894533 2.57231 1.13332 2.86686 1.13332H7.13353C7.42808 1.13332 7.66686 0.894533 7.66686 0.599984C7.66686 0.305434 7.42808 0.0666504 7.13353 0.0666504H2.86686ZM0.200195 2.73332C0.200195 2.43877 0.438979 2.19998 0.733529 2.19998H2.33353H7.66686H9.26686C9.56137 2.19998 9.8002 2.43877 9.8002 2.73332C9.8002 3.02787 9.56137 3.26665 9.26686 3.26665H8.73353V11.8C8.73353 12.3891 8.25598 12.8667 7.66686 12.8667H2.33353C1.74443 12.8667 1.26686 12.3891 1.26686 11.8V3.26665H0.733529C0.438979 3.26665 0.200195 3.02787 0.200195 2.73332ZM2.33353 3.26665H7.66686V11.8H2.33353V3.26665Z" fill="#CE2C31"/>
</svg>
