<svg width="10" height="13" viewBox="0 0 10 13" fill="none" xmlns="http://www.w3.org/2000/svg">
<path fill-rule="evenodd" clip-rule="evenodd" d="M0.200195 0.666695C0.200195 0.372146 0.438979 0.133362 0.733529 0.133362H9.26686C9.56137 0.133362 9.8002 0.372146 9.8002 0.666695V12.4C9.8002 12.5939 9.69502 12.7725 9.52542 12.8665C9.35582 12.9605 9.14857 12.955 8.9842 12.8523L5.0002 10.3623L1.0162 12.8523C0.85179 12.955 0.644558 12.9605 0.47499 12.8665C0.305411 12.7725 0.200195 12.5939 0.200195 12.4V0.666695ZM1.26686 1.20003V11.4378L4.43486 9.45774C4.78075 9.24163 5.21964 9.24163 5.56553 9.45774L8.73353 11.4378V1.20003H1.26686Z" fill="white"/>
</svg>
