<svg width="14" height="14" viewBox="0 0 14 14" fill="none" xmlns="http://www.w3.org/2000/svg">
<path fill-rule="evenodd" clip-rule="evenodd" d="M8.07986 2.20575C8.8013 1.71565 9.71352 1.70605 10.3912 2.15111C10.5451 2.25217 10.7094 2.41256 11.1487 2.85191C11.5881 3.29125 11.7485 3.45559 11.8495 3.60948C12.2946 4.28718 12.285 5.19936 11.7949 5.9208C11.683 6.08546 11.5099 6.26196 11.0544 6.71743L10.3945 7.3774C10.1863 7.58567 10.1863 7.92336 10.3945 8.13164C10.6028 8.33992 10.9405 8.33992 11.1487 8.13164L11.8087 7.47167L11.8545 7.42589C12.2488 7.03172 12.501 6.7795 12.6773 6.52019C13.3975 5.45996 13.4347 4.08 12.7411 3.02396C12.572 2.7664 12.3255 2.51999 11.9506 2.14527L11.903 2.09766L11.8554 2.05003C11.4807 1.67518 11.2343 1.42866 10.9767 1.25952C9.92067 0.565983 8.5407 0.603167 7.48047 1.32341C7.22116 1.49956 6.96893 1.75188 6.57475 2.14616L6.52899 2.19195L5.86902 2.85191C5.66073 3.06019 5.66073 3.39788 5.86902 3.60615C6.0773 3.81443 6.41498 3.81443 6.62326 3.60615L7.28323 2.94619C7.7387 2.49072 7.9152 2.3176 8.07986 2.20575ZM3.60628 6.62314C3.81456 6.41487 3.81456 6.07717 3.60628 5.86889C3.39799 5.66062 3.06031 5.66062 2.85203 5.86889L2.19206 6.52886L2.14629 6.57463C1.752 6.9688 1.49969 7.22103 1.32353 7.48035C0.603283 8.54058 0.56611 9.92051 1.25965 10.9766C1.42879 11.2341 1.67529 11.4805 2.05016 11.8552L2.09778 11.9029L2.14538 11.9505C2.5201 12.3253 2.76652 12.5719 3.02407 12.741C4.08013 13.4345 5.46007 13.3974 6.52031 12.6771C6.77961 12.501 7.03185 12.2486 7.42601 11.8544L7.47179 11.8086L8.13176 11.1487C8.34004 10.9403 8.34004 10.6026 8.13176 10.3944C7.92347 10.1861 7.58579 10.1861 7.37751 10.3944L6.71754 11.0544C6.26208 11.5098 6.08558 11.683 5.92093 11.7948C5.19947 12.2849 4.2873 12.2945 3.6096 11.8495C3.45572 11.7484 3.29138 11.5879 2.85203 11.1487C2.41268 10.7093 2.2523 10.5449 2.15123 10.391C1.70617 9.71336 1.71577 8.80118 2.20586 8.07973C2.31771 7.91508 2.49085 7.73858 2.94631 7.28311L3.60628 6.62314ZM9.26362 5.49126C9.4719 5.28298 9.4719 4.94529 9.26362 4.73701C9.05535 4.52873 8.71766 4.52873 8.50937 4.73701L4.73814 8.50825C4.52986 8.71653 4.52986 9.05422 4.73814 9.26249C4.94642 9.47077 5.2841 9.47077 5.49239 9.26249L9.26362 5.49126Z" fill="#F6FEF4" fill-opacity="0.690196"/>
</svg>
