<svg width="14" height="18" viewBox="0 0 14 18" fill="none" xmlns="http://www.w3.org/2000/svg">
<path fill-rule="evenodd" clip-rule="evenodd" d="M8.32195 1.50101C8.32195 2.10548 7.9158 2.6151 7.36151 2.77184C10.1755 2.95762 12.4005 5.29896 12.4005 8.15996V12.3C12.4005 13.2675 12.4399 14.0489 13.2688 14.4633C13.5177 14.5878 13.6483 14.867 13.5844 15.1379C13.5204 15.4087 13.2787 15.6 13.0005 15.6H7.79419C8.04331 15.8198 8.20043 16.1415 8.20043 16.5C8.20043 17.1627 7.66318 17.7 7.00043 17.7C6.33769 17.7 5.80043 17.1627 5.80043 16.5C5.80043 16.1415 5.95756 15.8198 6.20668 15.6H1.00045C0.722185 15.6 0.480433 15.4087 0.416497 15.1379C0.352573 14.867 0.483229 14.5878 0.732121 14.4633C1.56096 14.0489 1.60045 13.2675 1.60045 12.3V8.15996C1.60045 5.29842 3.82624 2.95673 6.64097 2.77174C6.08687 2.61487 5.6809 2.10535 5.6809 1.50101C5.6809 0.771701 6.27211 0.180481 7.00142 0.180481C7.73072 0.180481 8.32195 0.771701 8.32195 1.50101ZM7.00045 3.95996C4.68085 3.95996 2.80045 5.84036 2.80045 8.15996V12.3L2.80049 12.3611C2.80106 12.8955 2.80192 13.6901 2.43961 14.4H11.5613C11.199 13.6901 11.1999 12.8955 11.2005 12.3611V12.3V8.15996C11.2005 5.84036 9.32005 3.95996 7.00045 3.95996Z" fill="#AFB5AD"/>
</svg>
