<svg width="16" height="16" viewBox="0 0 16 16" fill="none" xmlns="http://www.w3.org/2000/svg">
<rect width="16" height="16" fill="white" fill-opacity="0.01"/>
<path fill-rule="evenodd" clip-rule="evenodd" d="M10.6671 6.93336C10.6671 8.99523 8.99566 10.6667 6.93379 10.6667C4.87192 10.6667 3.20046 8.99523 3.20046 6.93336C3.20046 4.8715 4.87192 3.20003 6.93379 3.20003C8.99566 3.20003 10.6671 4.8715 10.6671 6.93336ZM9.92989 10.6837C9.10873 11.3406 8.06713 11.7334 6.93379 11.7334C4.28282 11.7334 2.13379 9.58433 2.13379 6.93336C2.13379 4.2824 4.28282 2.13336 6.93379 2.13336C9.58475 2.13336 11.7338 4.2824 11.7338 6.93336C11.7338 8.06671 11.341 9.10831 10.6841 9.92946L13.711 12.9562C13.9192 13.1645 13.9192 13.5022 13.711 13.7105C13.5026 13.9187 13.1649 13.9187 12.9566 13.7105L9.92989 10.6837Z" fill="#F6FEF4" fill-opacity="0.690196"/>
</svg>
