<svg width="14" height="12" viewBox="0 0 14 12" fill="none" xmlns="http://www.w3.org/2000/svg">
<path fill-rule="evenodd" clip-rule="evenodd" d="M4.86641 1.20003C3.98275 1.20003 3.26641 1.91637 3.26641 2.80003C3.26641 3.68369 3.98275 4.40003 4.86641 4.40003C5.75007 4.40003 6.46641 3.68369 6.46641 2.80003C6.46641 1.91637 5.75007 1.20003 4.86641 1.20003ZM2.19974 3.33336C2.21756 3.33336 2.23519 3.33249 2.25256 3.33078C2.49864 4.54926 3.57539 5.4667 4.86641 5.4667C6.15743 5.4667 7.23417 4.54926 7.48025 3.33078C7.49763 3.33249 7.51525 3.33336 7.53307 3.33336H13.3997C13.6942 3.33336 13.9331 3.09458 13.9331 2.80003C13.9331 2.50548 13.6942 2.2667 13.3997 2.2667H7.53307C7.51525 2.2667 7.49763 2.26757 7.48025 2.26928C7.23417 1.05079 6.15743 0.133362 4.86641 0.133362C3.57539 0.133362 2.49864 1.05079 2.25256 2.26928C2.23519 2.26757 2.21756 2.2667 2.19974 2.2667H0.59974C0.30519 2.2667 0.0664062 2.50548 0.0664062 2.80003C0.0664062 3.09458 0.30519 3.33336 0.59974 3.33336H2.19974ZM11.7469 9.7308C11.5009 10.9493 10.4241 11.8667 9.13307 11.8667C7.84205 11.8667 6.76531 10.9493 6.51923 9.7308C6.50185 9.73251 6.48423 9.73336 6.46641 9.73336H0.59974C0.30519 9.73336 0.0664062 9.49454 0.0664062 9.20003C0.0664062 8.90552 0.30519 8.6667 0.59974 8.6667H6.46641C6.48423 8.6667 6.50185 8.66755 6.51923 8.66926C6.76531 7.4508 7.84205 6.53336 9.13307 6.53336C10.4241 6.53336 11.5009 7.4508 11.7469 8.66926C11.7643 8.66755 11.7819 8.6667 11.7997 8.6667H13.3997C13.6942 8.6667 13.9331 8.90552 13.9331 9.20003C13.9331 9.49454 13.6942 9.73336 13.3997 9.73336H11.7997C11.7819 9.73336 11.7643 9.73251 11.7469 9.7308ZM7.53307 9.20003C7.53307 8.31637 8.24941 7.60003 9.13307 7.60003C10.0167 7.60003 10.7331 8.31637 10.7331 9.20003C10.7331 10.0837 10.0167 10.8 9.13307 10.8C8.24941 10.8 7.53307 10.0837 7.53307 9.20003Z" fill="white"/>
</svg>
