<svg width="24" height="13" viewBox="0 0 24 13" fill="none" xmlns="http://www.w3.org/2000/svg">
<path d="M2.99831 12.2614C2.54756 12.2614 2.13468 12.1515 1.75968 11.9318C1.38468 11.7083 1.08543 11.4091 0.86195 11.0341C0.642253 10.6591 0.532404 10.2462 0.532404 9.79545C0.532404 9.34091 0.642253 8.92614 0.86195 8.55114C1.08543 8.17614 1.38468 7.87689 1.75968 7.65341C2.13468 7.42992 2.54756 7.31818 2.99831 7.31818H4.3165V5.03409H2.99831C2.54756 5.03409 2.13468 4.92424 1.75968 4.70455C1.38468 4.48106 1.08543 4.18371 0.86195 3.8125C0.642253 3.4375 0.532404 3.02273 0.532404 2.56818C0.532404 2.11364 0.642253 1.70076 0.86195 1.32955C1.08543 0.954545 1.38468 0.657197 1.75968 0.4375C2.13468 0.214015 2.54756 0.102272 2.99831 0.102272C3.45286 0.102272 3.86763 0.214015 4.24263 0.4375C4.61763 0.657197 4.91687 0.954545 5.14036 1.32955C5.36384 1.70076 5.47559 2.11364 5.47559 2.56818V3.875H7.75968V2.56818C7.75968 2.11364 7.86953 1.70076 8.08922 1.32955C8.31271 0.954545 8.61006 0.657197 8.98127 0.4375C9.35627 0.214015 9.77104 0.102272 10.2256 0.102272C10.6801 0.102272 11.093 0.214015 11.4642 0.4375C11.8392 0.657197 12.1366 0.954545 12.3563 1.32955C12.5798 1.70076 12.6915 2.11364 12.6915 2.56818C12.6915 3.02273 12.5798 3.4375 12.3563 3.8125C12.1366 4.18371 11.8392 4.48106 11.4642 4.70455C11.093 4.92424 10.6801 5.03409 10.2256 5.03409H8.91877V7.31818H10.2256C10.6801 7.31818 11.093 7.42992 11.4642 7.65341C11.8392 7.87689 12.1366 8.17614 12.3563 8.55114C12.5798 8.92614 12.6915 9.34091 12.6915 9.79545C12.6915 10.2462 12.5798 10.6591 12.3563 11.0341C12.1366 11.4091 11.8392 11.7083 11.4642 11.9318C11.093 12.1515 10.6801 12.2614 10.2256 12.2614C9.77104 12.2614 9.35627 12.1515 8.98127 11.9318C8.61006 11.7083 8.31271 11.4091 8.08922 11.0341C7.86953 10.6591 7.75968 10.2462 7.75968 9.79545V8.47727H5.47559V9.79545C5.47559 10.2462 5.36384 10.6591 5.14036 11.0341C4.91687 11.4091 4.61763 11.7083 4.24263 11.9318C3.86763 12.1515 3.45286 12.2614 2.99831 12.2614ZM2.99831 11.1023C3.24074 11.1023 3.46043 11.0436 3.6574 10.9261C3.85816 10.8087 4.01725 10.6515 4.13468 10.4545C4.25589 10.2538 4.3165 10.0341 4.3165 9.79545V8.47727H2.99831C2.75968 8.47727 2.53998 8.53788 2.33922 8.65909C2.14225 8.77652 1.98506 8.93561 1.86763 9.13636C1.75021 9.33333 1.6915 9.55303 1.6915 9.79545C1.6915 10.0341 1.75021 10.2538 1.86763 10.4545C1.98506 10.6515 2.14225 10.8087 2.33922 10.9261C2.53998 11.0436 2.75968 11.1023 2.99831 11.1023ZM2.99831 3.875H4.3165V2.56818C4.3165 2.32576 4.25589 2.10606 4.13468 1.90909C4.01725 1.71212 3.85816 1.55492 3.6574 1.4375C3.46043 1.32008 3.24074 1.26136 2.99831 1.26136C2.75968 1.26136 2.53998 1.32008 2.33922 1.4375C2.14225 1.55492 1.98506 1.71212 1.86763 1.90909C1.75021 2.10606 1.6915 2.32576 1.6915 2.56818C1.6915 2.81061 1.75021 3.0322 1.86763 3.23295C1.98506 3.42992 2.14225 3.58712 2.33922 3.70455C2.53998 3.81818 2.75968 3.875 2.99831 3.875ZM8.91877 3.875H10.2256C10.468 3.875 10.6877 3.81818 10.8847 3.70455C11.0816 3.58712 11.2388 3.42992 11.3563 3.23295C11.4737 3.0322 11.5324 2.81061 11.5324 2.56818C11.5324 2.32576 11.4737 2.10606 11.3563 1.90909C11.2388 1.71212 11.0816 1.55492 10.8847 1.4375C10.6877 1.32008 10.468 1.26136 10.2256 1.26136C9.98316 1.26136 9.76157 1.32008 9.56081 1.4375C9.36384 1.55492 9.20665 1.71212 9.08922 1.90909C8.97559 2.10606 8.91877 2.32576 8.91877 2.56818V3.875ZM10.2256 11.1023C10.468 11.1023 10.6877 11.0436 10.8847 10.9261C11.0816 10.8087 11.2388 10.6515 11.3563 10.4545C11.4737 10.2538 11.5324 10.0341 11.5324 9.79545C11.5324 9.55303 11.4737 9.33333 11.3563 9.13636C11.2388 8.93561 11.0816 8.77652 10.8847 8.65909C10.6877 8.53788 10.468 8.47727 10.2256 8.47727H8.91877V9.79545C8.91877 10.0341 8.97559 10.2538 9.08922 10.4545C9.20665 10.6515 9.36384 10.8087 9.56081 10.9261C9.76157 11.0436 9.98316 11.1023 10.2256 11.1023ZM5.47559 7.31818H7.75968V5.03409H5.47559V7.31818ZM22.3889 3.27273C22.3208 2.69697 22.0442 2.25 21.5594 1.93182C21.0745 1.61364 20.4798 1.45455 19.7753 1.45455C19.2602 1.45455 18.8094 1.53788 18.423 1.70455C18.0405 1.87121 17.7412 2.10038 17.5253 2.39205C17.3132 2.68371 17.2071 3.01515 17.2071 3.38636C17.2071 3.69697 17.281 3.96401 17.4287 4.1875C17.5802 4.4072 17.7734 4.59091 18.0083 4.73864C18.2431 4.88258 18.4893 5.00189 18.7469 5.09659C19.0045 5.1875 19.2412 5.26136 19.4571 5.31818L20.6389 5.63636C20.942 5.71591 21.2791 5.82576 21.6503 5.96591C22.0253 6.10606 22.3833 6.29735 22.7242 6.53977C23.0689 6.77841 23.353 7.08523 23.5764 7.46023C23.7999 7.83523 23.9117 8.29545 23.9117 8.84091C23.9117 9.4697 23.7469 10.0379 23.4173 10.5455C23.0916 11.053 22.6143 11.4564 21.9855 11.7557C21.3605 12.0549 20.6011 12.2045 19.7071 12.2045C18.8738 12.2045 18.1522 12.0701 17.5423 11.8011C16.9363 11.5322 16.459 11.1572 16.1105 10.6761C15.7658 10.1951 15.5708 9.63636 15.5253 9H16.9798C17.0177 9.43939 17.1655 9.80303 17.423 10.0909C17.6844 10.375 18.0139 10.5871 18.4117 10.7273C18.8132 10.8636 19.245 10.9318 19.7071 10.9318C20.245 10.9318 20.728 10.8447 21.156 10.6705C21.584 10.4924 21.923 10.2462 22.173 9.93182C22.423 9.61364 22.548 9.24242 22.548 8.81818C22.548 8.43182 22.4401 8.11742 22.2242 7.875C22.0083 7.63258 21.7242 7.43561 21.3719 7.28409C21.0196 7.13258 20.6389 7 20.2298 6.88636L18.798 6.47727C17.8889 6.21591 17.1692 5.8428 16.6389 5.35795C16.1086 4.87311 15.8435 4.23864 15.8435 3.45455C15.8435 2.80303 16.0196 2.23485 16.3719 1.75C16.728 1.26136 17.2052 0.882575 17.8037 0.613636C18.406 0.340909 19.0783 0.204545 19.8208 0.204545C20.5708 0.204545 21.2374 0.339015 21.8208 0.607954C22.4041 0.873105 22.8662 1.23674 23.2071 1.69886C23.5518 2.16098 23.7336 2.68561 23.7526 3.27273H22.3889Z" fill="#ECEEEC"/>
</svg>
