<svg width="16" height="16" viewBox="0 0 16 16" fill="none" xmlns="http://www.w3.org/2000/svg">
<path fill-rule="evenodd" clip-rule="evenodd" d="M8.00013 0.0523682C3.61092 0.0523682 0.0527344 3.61054 0.0527344 7.99976C0.0527344 12.389 3.6109 15.9472 8.00013 15.9472C12.3894 15.9472 15.9475 12.389 15.9475 7.99976C15.9475 3.61054 12.3893 0.0523682 8.00013 0.0523682ZM1.19274 7.99976C1.19274 4.24015 4.24052 1.19236 8.00013 1.19236C11.7597 1.19236 14.8075 4.24015 14.8075 7.99976C14.8075 11.7593 11.7597 14.8072 8.00013 14.8072C4.24052 14.8072 1.19274 11.7593 1.19274 7.99976ZM8.60002 4.39996C8.60002 4.0686 8.33139 3.79996 8.00002 3.79996C7.66866 3.79996 7.40002 4.0686 7.40002 4.39996V7.99996C7.40002 8.15909 7.46324 8.31171 7.57576 8.42423L9.97576 10.8242C10.2101 11.0585 10.59 11.0585 10.8243 10.8242C11.0586 10.5899 11.0586 10.21 10.8243 9.9757L8.60002 7.75144V4.39996Z" fill="#1D211C"/>
</svg>
